<?xml version="1.0" standalone="no"?><!DOCTYPE svg PUBLIC "-//W3C//DTD SVG 1.1//EN" "http://www.w3.org/Graphics/SVG/1.1/DTD/svg11.dtd"><svg t="1608626398510" class="icon" viewBox="0 0 1024 1024" version="1.1" xmlns="http://www.w3.org/2000/svg" p-id="4345" xmlns:xlink="http://www.w3.org/1999/xlink" width="200" height="200"><defs><style type="text/css"></style></defs><path d="M100.65328427 771.0148992c89.38948053 8.5139072 170.156992-13.52401493 244.13739093-67.98027733-10.577984-1.66566933-19.21195947-2.5247008-27.60579947-4.4283232-59.39323733-13.47926187-100.71406933-48.60895467-124.29650133-104.6424736-3.9797056-9.45152853-2.86744-10.16757013 7.5184352-9.31945387 19.64093013 1.60236053 39.29277547 2.0422464 61.24446613-3.45904747-19.34185173-5.85604053-35.97890027-11.96094827-51.02777706-21.63951466-48.25857493-31.04301653-74.62112533-75.37755307-80.40294187-132.23189974-0.148448-1.46264533-0.12006827-2.941664-0.13534933-4.41085866-0.1080608-10.5124928 0.53921387-10.89234453 10.21778026-6.23698347 19.2916416 9.27906773 39.53291093 14.8655008 63.59343147 15.91664107-9.78007893-7.1975264-17.28978133-13.79362133-24.34868373-20.8961856-50.670848-50.99503147-62.8599264-133.47842347-29.18196374-196.97470934 3.31278293-6.2468064 5.249152-7.10583787 10.20795734-1.20504533 41.1931232 49.0335584 90.25287787 88.50861867 147.17053333 117.77135573 55.78355947 28.68422827 114.9530336 46.4029792 177.72345493 51.1718592 16.08910187 1.2203264 15.83150187 1.11444907 14.0424896-15.61865386-11.21543573-104.793104 66.83417493-182.165968 152.2210272-189.6309184 51.4065376-4.49490667 95.6297376 11.29511787 133.4642336 45.7076768 5.16946987 4.70120533 9.7844448 6.13110507 16.58356374 4.62479786 30.9928064-6.8667936 60.06343467-18.585424 87.970496-33.47821226 2.4930464-1.33166293 4.63462187-3.76249173 9.38385386-2.9209248-12.1792544 37.72752533-35.54119787 66.3255232-67.1703648 89.25304 30.63478613-3.0377184 59.6115424-12.08101653 88.0774656-23.750528 0.8775872 4.427232-1.68749973 6.43454933-3.29750186 8.67545386-19.85705173 27.66146773-43.2037152 52.03307307-70.22336427 72.72841814-6.0088544 4.60296747-8.4156704 9.38276267-8.25958187 16.98088 2.20597547 106.784048-28.41025493 203.96921173-89.00526293 291.24549653-75.98989973 109.4571968-180.40861013 175.0110112-312.35125547 195.66487787-107.4760768 16.822608-209.67025493 0.49009493-306.06624533-50.3717696-10.52122453-5.551504-20.67023893-11.81031787-30.9917152-17.73949014C100.1151616 772.88359253 100.38476907 771.95033707 100.65328427 771.0148992z" p-id="4346"></path></svg>