<?xml version="1.0" standalone="no"?><!DOCTYPE svg PUBLIC "-//W3C//DTD SVG 1.1//EN" "http://www.w3.org/Graphics/SVG/1.1/DTD/svg11.dtd"><svg t="1608626395663" class="icon" viewBox="0 0 1024 1024" version="1.1" xmlns="http://www.w3.org/2000/svg" p-id="4216" xmlns:xlink="http://www.w3.org/1999/xlink" width="200" height="200"><defs><style type="text/css"></style></defs><path d="M401.36286201 705.35990234c6.57634131-10.75670684 8.36882578-22.11150849 5.38015254-34.06620323-2.98957325-11.95199648-10.4599081-20.32082227-22.41280371-25.10108173-11.35480166-4.78115859-23.60719424-4.78115859-36.75537949 0-13.14818526 4.78025859-23.00999941 12.25239258-29.58454161 22.41280371-7.76983184 11.35570078-10.16041113 22.71050244-7.17263701 34.0653041 2.98867324 11.3565999 10.16041113 20.02312442 21.51611191 25.99957266 11.35480166 5.97644825 23.90669121 6.27504521 37.65207218 0.89579268C383.73301511 724.18773711 394.19292324 716.11930742 401.36286201 705.35990234L401.36286201 705.35990234zM447.98185391 645.29592559c2.98777412-4.18216463 3.58496982-8.66562451 1.79248447-13.44768223-1.79248447-4.78025859-4.78025859-7.76803359-8.96512148-8.96332324-4.18306377-1.79248447-8.96422237-1.79248447-14.34347491 0-5.3774543 1.79248447-8.96422237 4.78025859-10.75760595 8.96332324-5.3774543 10.75850596-2.98777412 18.5292369 7.17353613 23.31039551 4.77935947 1.19528964 9.56231719 0.89489355 14.3434749-0.8975918C442.00540654 652.4685626 445.59127549 649.47988848 447.98185391 645.29592559L447.98185391 645.29592559zM534.94119599 699.08665537c-14.9406706 34.0644041-41.23973935 58.86688799-78.89091151 74.40655254-37.65207217 15.53966367-75.0064456 17.63164599-112.06222208 6.27684434-35.85958683-11.3574999-60.36437285-32.57501396-73.5125581-63.65164395-13.14818526-31.0775291-12.25239258-62.1559582 2.69007627-93.2343873 16.13596026-31.08022734 41.53743721-54.38882461 76.20083613-69.92758915 34.66519717-15.53876455 69.62809219-18.52743867 104.89048419-8.96512149 37.05307823 9.56321631 63.6498457 29.28684375 79.7867042 59.16818407C550.1813627 633.04443214 550.48085967 665.019553 534.94119599 699.08665537zM690.93143457 618.40235937c-2.98777412-31.67742305-17.63164599-59.76627802-43.93071474-84.27016494-26.29547138-24.50388604-61.25836641-42.73362685-104.88778595-54.68652245-43.62851953-11.95379559-89.3499205-15.53876455-137.16330291-10.75850596-74.10885382 7.77163097-135.66851631 31.37792607-184.67628926 70.82338184-49.00867207 39.44635577-71.12197969 83.67207012-66.33992111 132.67984306 2.98777412 31.67652305 17.92934385 59.76807716 44.82470919 84.27106406 26.8935662 24.50208779 61.55876338 42.73182773 103.99289239 54.68562333 42.43322988 11.95289558 88.15463086 15.53696631 137.1624038 10.75760596 74.70694863-7.76803359 136.26571201-31.37612695 184.67628926-70.82248271C673.00209072 711.63674668 695.11359922 667.40923232 690.93143457 618.40235937L690.93143457 618.40235937zM845.12738954 621.09243565c0 22.70960332-5.97734737 45.71960185-17.93204207 69.02819912-11.95379559 23.30949638-30.18083731 46.3185958-54.68562335 69.02999736-24.50298691 22.71140157-52.59454102 42.13643115-84.27016494 58.27329053-31.67562393 16.13506026-69.32859521 30.18263643-112.95801475 42.13553203-43.63031865 11.95199648-88.75182656 17.03265205-135.36991933 15.23926758s-92.63719161-7.47123487-138.0599956-17.03265206c-45.42190401-9.56411543-85.46545459-24.80338301-120.13065177-45.72230011-34.66429716-20.91711797-63.35124786-46.3185958-86.0626494-76.20263436C72.94692763 705.95889628 62.18932167 672.79028398 63.38551045 636.33170322c0-38.25196523 11.65429863-79.19040849 34.96379415-122.81892892 23.30859638-43.63121777 56.17950996-86.66164336 98.61363982-129.09577323 56.18040996-56.18040996 113.25661172-95.32726787 171.23040616-117.44147461 57.97289443-22.11240762 98.91403593-21.21661494 122.82072715 2.68917716 21.51431367 21.51611191 24.80068477 56.47990693 9.86181329 104.89048417-1.19528964 4.78205771-1.19528964 8.06842969 0 9.86181328 1.19528964 1.79248447 2.68827715 2.98777412 4.48166161 3.58586896 1.79068623 0.5962957 4.18216463 0.5962957 7.17083789 0 2.98777412-0.59809482 5.37835342-1.19618877 7.17263702-1.79338448l2.68917715-0.8966918c46.61809278-19.72272832 87.856933-29.5845416 123.71651982-29.5845416s61.25926641 10.16041113 76.20263437 30.4812334c14.94156973 20.91801797 14.94156973 50.50255957 0 88.75272568-0.59899395 4.78025859-1.4938875 8.06842969-2.69007626 9.86091416-1.19349053 1.79338448-0.29769785 3.88536592 2.69007626 6.27684434 2.986875 2.3905793 5.07975557 3.88356681 6.27594523 4.48076161 1.19618877 0.59809482 3.88446591 1.49568575 8.0693288 2.6909754 19.12643261 5.97734737 36.45678252 13.74538096 51.9964462 23.30859639 15.54056367 9.56321631 28.68695067 23.30859638 39.44635578 41.23884023C838.85054521 580.75028721 844.53019473 600.17351856 845.12738954 621.09243565L845.12738954 621.09243565zM808.37201006 308.21526582c13.74538096 16.13685938 22.70960332 34.36570019 26.89356621 54.68652246 4.18216463 20.31902402 3.28817021 40.04265146-2.68917716 59.1690832-2.98957325 7.17083789-8.06842969 12.84958828-15.24016757 17.03265206-7.17263701 4.18396289-14.64117363 4.78115859-22.41190459 1.79338447-7.17443614-2.98867324-12.85228654-8.06842969-17.03355117-15.24106669-4.18216463-7.16993877-4.78025859-14.64297188-1.79338447-22.41100548 6.57634131-20.91891709 2.68917715-39.14775791-11.65339863-54.68742158-14.3434749-15.53786543-32.27371875-21.51521279-53.78983069-17.93024297-7.77073184 1.79248447-15.23836846 0.59719482-22.41190457-3.58586895-7.17353613-4.18396289-11.3565999-10.4599081-12.55188955-18.82693564-1.79338448-8.36702754-0.29769785-15.8373624 4.48166162-22.41280371 4.78115859-6.57454219 10.75940508-10.75760598 17.93114297-12.55099042 20.32172226-4.18306377 40.34124844-3.28637198 60.06307764 2.69007626C777.88987666 281.91889531 794.62303174 292.67560214 808.37201006 308.21526582zM898.91722021 226.63517714c28.68695067 32.27371875 47.51118721 69.62809219 56.47900694 112.06132208 8.9660206 42.43412989 6.57544219 82.47678047-7.17443613 120.13065175-2.98597588 8.96422237-8.66562451 15.83646329-17.03085293 20.61852101-8.36882578 4.78025859-17.03355117 5.37835342-25.99957266 1.79248448-8.96422237-3.58496982-15.53876455-9.26282021-19.72362744-17.03265207-4.18216463-7.77073184-5.07975557-16.43545635-2.68917715-25.99867265 9.56321631-27.49166103 11.35480166-56.17950996 5.37835343-86.06175029-5.97734737-29.88403858-19.42502959-56.18130908-40.34124844-78.89181153-20.91981622-23.30859638-45.72140098-39.14595879-74.40925079-47.51388544-28.68695067-8.36702754-57.37659873-9.86181328-86.06444853-4.48256075-9.56141719 1.79338448-18.2270417 0-25.99597442-5.37925254s-12.84868828-12.55099043-15.23926758-21.51611192c-2.39237753-8.96422237-0.89579268-17.63164599 4.48256075-25.99777352 5.3774543-8.36792666 12.84689004-13.14818526 22.4128037-14.34527403 40.63984629-8.36612752 81.27969258-6.57364307 121.92313623 5.37925254C835.56417325 171.35145987 870.22937041 193.76336445 898.91722021 226.63517714L898.91722021 226.63517714z" p-id="4217"></path></svg>