<?xml version="1.0" encoding="UTF-8"?>
<svg width="40px" height="36px" viewBox="0 0 40 36" version="1.1" xmlns="http://www.w3.org/2000/svg" xmlns:xlink="http://www.w3.org/1999/xlink">
    <title>logo</title>
    <g id="页面-1" stroke="none" stroke-width="1" fill="none" fill-rule="evenodd">
        <g id="logo" transform="translate(0.000000, 0.131931)">
            <path d="M19.835407,20.1832989 C30.119545,20.1832989 38.5539797,17.0114808 39.3708406,12.9774288 C39.3776533,13.0255922 39.3834614,13.0736573 39.3878734,13.1215296 C39.4074987,13.3344695 39.4356739,18.2773688 39.4356739,18.4938048 C39.4356739,22.573643 30.6601881,25.8810054 19.835407,25.8810054 C9.01062588,25.8810054 0.235406977,22.573643 0.235406977,18.4938048 L0.235406977,18.4938048 L0.235406977,13.3523431 C0.235406977,13.1928816 0.250378074,13.0320245 0.280106206,12.8702245 C0.967794312,16.9550378 9.46016847,20.1832989 19.835407,20.1832989 Z M20.09,21.5246654 C19.8193805,21.5246654 19.6,21.7440459 19.6,22.0146654 L19.6,22.0146654 L19.6,23.6935946 C19.6,23.9642142 19.8193805,24.1835946 20.09,24.1835946 C20.3606195,24.1835946 20.58,23.9642142 20.58,23.6935946 L20.58,23.6935946 L20.58,22.0146654 C20.58,21.7440459 20.3606195,21.5246654 20.09,21.5246654 Z" id="形状结合" fill="#003BDE"></path>
            <path d="M19.835407,28.8408715 C30.119545,28.8408715 38.5539797,25.6690534 39.3708406,21.6350014 C39.3776533,21.6831648 39.3834614,21.7312299 39.3878734,21.7791022 C39.4074987,21.9920421 39.4356739,26.9349414 39.4356739,27.1513774 C39.4356739,31.2312156 30.6601881,34.538578 19.835407,34.538578 C9.01062588,34.538578 0.235406977,31.2312156 0.235406977,27.1513774 L0.235406977,27.1513774 L0.235406977,22.0099157 C0.235406977,21.8504542 0.250378074,21.6895971 0.280106206,21.5277971 C0.967794312,25.6126104 9.46016847,28.8408715 19.835407,28.8408715 Z M20.09,30.182238 C19.8193805,30.182238 19.6,30.4016185 19.6,30.672238 L19.6,30.672238 L19.6,32.3511672 C19.6,32.6217868 19.8193805,32.8411672 20.09,32.8411672 C20.3606195,32.8411672 20.58,32.6217868 20.58,32.3511672 L20.58,32.3511672 L20.58,30.672238 C20.58,30.4016185 20.3606195,30.182238 20.09,30.182238 Z" id="形状结合备份" fill="#003BDE"></path>
            <path d="M27.7047406,3.91351559 C31.0564505,5.01206493 33.2409277,6.79015532 33.2409277,8.79447939 C33.2409277,9.07629152 33.1951844,9.35796366 33.1089878,9.63529593 C33.0965406,9.67533481 33.0355495,9.70921386 32.9505976,9.72265349 C31.8820086,9.89162877 30.6245339,10.0127254 28.9205173,10.0364147 C28.7593265,10.0386247 28.6429455,9.96918661 28.6861994,9.89932856 C28.9071366,9.54121855 29.0238287,9.16980891 29.0238287,8.79447939 C29.0238287,7.48187602 27.6577526,6.3103887 25.5327106,5.55146988 C25.4585255,5.52503862 25.4269595,5.4827486 25.4477313,5.44330778 L25.4732754,5.4145537 L27.3559088,3.94753464 C27.4265465,3.89237618 27.5899155,3.87585664 27.7047406,3.91351559 Z M19.8224811,5.53324239 C23.8198876,5.53324239 27.071709,6.99620157 27.071709,8.79445139 C27.071709,9.18266056 26.9158083,9.56568987 26.619877,9.92575982 C26.5819131,9.97223852 26.4730004,10.0010777 26.3634654,9.99561787 C24.1033717,9.88166105 22.7260931,9.57072973 21.2862675,9.24523881 L20.8843183,9.15466559 C19.0657383,8.74751241 17.0769909,8.35542364 13.3891647,8.35542364 C13.2313969,8.35542364 13.0770521,8.35612362 12.925819,8.35766358 C12.7761419,8.35906354 12.6575826,8.2994252 12.6830993,8.23320705 C13.2762067,6.70150979 16.2507675,5.53324239 19.8224811,5.53324239 Z M2.30840401,5.05439694 L2.36200484,5.06387749 L5.66268138,5.86479514 C5.77190524,5.8913944 5.81609267,5.95089274 5.76568165,6.00213131 C4.92331987,6.85666746 4.45188356,7.80094111 4.45188356,8.79449339 C4.45188356,8.9911879 4.47179902,9.18844239 4.50945169,9.38471692 C4.51785353,9.42965566 4.46464191,9.47221448 4.37377761,9.49111395 C3.33630655,9.70698792 2.21046062,9.89150278 0.662967038,9.98180026 C0.531649465,9.98964004 0.40748901,9.94708122 0.39068534,9.88814287 C0.291108033,9.52961287 0.235406977,9.16492305 0.235406977,8.79449339 C0.235406977,7.48091004 0.879236501,6.23396484 2.02966557,5.11315611 C2.07900969,5.06491746 2.19876918,5.04156954 2.30840401,5.05439694 Z M37.609602,5.10713628 C38.6610761,6.12994774 39.284679,7.25831625 39.3876792,8.44604311 C39.3923469,8.49728168 39.3123739,8.54292041 39.2015942,8.55510007 C37.7126022,8.7187555 36.5889346,8.96066875 35.5200344,9.20160203 C35.3302152,9.14560359 35.3653784,9.1558233 35.1758703,9.09982487 C35.1867616,8.99804771 35.1932964,8.89641054 35.1932964,8.79449339 C35.1932964,7.79884117 34.7196818,6.85232758 33.8735859,5.99611147 C33.8315767,5.95352933 33.8550448,5.90501679 33.9274227,5.8746357 L33.9765862,5.85877531 L37.2766403,5.05799765 C37.3983114,5.02845848 37.5514115,5.05085785 37.609602,5.10713628 Z M11.6090058,4.1501998 L11.646095,4.17215837 L13.550511,5.65611696 C13.6059009,5.69909576 13.586919,5.75271427 13.5066348,5.78687331 C11.9519841,6.44807486 10.9101565,7.35006969 10.6745939,8.35846155 C10.6633915,8.40648021 10.5815514,8.44497914 10.4757505,8.45267893 C8.78698162,8.57447553 7.54693297,8.79706932 6.42326529,9.03870257 C6.415797,8.95722485 6.40397219,8.87588712 6.40397219,8.79454939 C6.40397219,6.92364159 8.30745465,5.25026829 11.286372,4.14219921 C11.3837266,4.10584022 11.5245193,4.11165149 11.6090058,4.1501998 Z M19.8224811,2.75774984 C21.8824866,2.75774984 23.8338906,2.96872395 25.5796053,3.34363349 C25.6873622,3.36679284 25.7370492,3.42173417 25.7051511,3.47107728 L25.6822944,3.49510926 L23.804951,4.95806844 C23.7439599,5.00538712 23.6148205,5.02372661 23.5034184,5.00174722 C22.3753943,4.77915343 21.1309891,4.6548369 19.8224811,4.6548369 C18.234223,4.6548369 16.7402522,4.8378118 15.4351672,5.15784287 C15.3399982,5.18117555 15.2258128,5.17330077 15.1527577,5.14069983 L15.1143415,5.11822397 L13.2450888,3.66170461 C13.1781853,3.60976606 13.2180162,3.54242794 13.3347083,3.51330876 C15.2590398,3.03284216 17.4699672,2.75774984 19.8224811,2.75774984 Z M8.18323196,1.71414896 C8.29805704,1.67593003 8.46298195,1.69174959 8.53424196,1.74746803 L10.4168754,3.2142071 C10.4759994,3.26040581 10.4498604,3.3183642 10.3568179,3.35126328 C9.00505592,3.82808997 7.83564492,4.40431389 6.90148531,5.05543572 C6.83395945,5.10233441 6.69953009,5.11857396 6.58999505,5.0919747 L3.28994086,4.29105705 C3.16826984,4.26151788 3.12594949,4.19137983 3.19938775,4.1387413 C4.50820698,3.1962876 6.20444416,2.37423054 8.18323196,1.71414896 Z M30.7933797,1.50009493 C33.0565852,2.19111565 34.9852732,3.08849061 36.4381683,4.13300146 C36.5013821,4.1782402 36.4790915,4.23623287 36.3948119,4.27048089 L36.3476152,4.28545721 L33.0469386,5.08651486 C32.9374036,5.11297412 32.8029742,5.09687457 32.7354484,5.04997588 C31.657524,4.3002968 30.2677982,3.64945496 28.6471776,3.13622928 C28.5631592,3.10974668 28.5275465,3.06323687 28.5538455,3.02059963 L28.5771623,2.9956732 L30.4504604,1.53593393 C30.5201645,1.48189544 30.6785546,1.46495591 30.7933797,1.50009493 Z M18.5911765,0.000190787506 C18.709069,-0.00304912209 18.8123296,0.0332070091 18.8394267,0.0827754218 L18.8463434,0.108547764 L18.8463434,1.79592068 C18.8463434,1.85177912 18.750189,1.89755784 18.626651,1.90175773 C16.3631343,1.98057553 14.2365364,2.28100714 12.3517247,2.75475392 C12.2570744,2.77855326 12.1425432,2.77065903 12.0693585,2.73795763 L12.0308991,2.71541502 L10.1619575,1.25945565 C10.0953652,1.2075171 10.1351961,1.14031897 10.2512659,1.11091979 C12.7462998,0.479257419 15.5761624,0.084748428 18.5911765,0.000190787506 Z M21.0535366,0.000218786725 C23.7819548,0.0767966499 26.35914,0.407047434 28.6743124,0.93721264 C28.7759642,0.960545323 28.8235919,1.01236332 28.7970264,1.05985505 L28.7720226,1.08756844 L26.8996581,2.54646774 C26.8371111,2.59546637 26.7017482,2.61338587 26.5891014,2.58846656 C24.8847735,2.2107571 23.0046295,1.97094379 21.0186846,1.90178572 C20.9154768,1.89816916 20.8312856,1.86577562 20.8060887,1.82275274 L20.7983698,1.79580868 L20.7983698,0.108295771 C20.7983698,0.0462775015 20.9156843,-0.00370110389 21.0535366,0.000218786725 Z" id="形状结合" fill="#00EBE9"></path>
            <path d="M13.3891647,15.4094488 C16.8871288,15.4094488 18.5979914,15.796258 20.4099872,16.2057466 C21.8326979,16.5274576 23.2946173,16.8564484 25.542575,17.0083442 C25.7921406,17.0251437 25.8213914,17.1841793 25.5799165,17.2176383 C23.7585853,17.4701913 21.8252296,17.6064075 19.8224811,17.6064075 C15.5761313,17.6064075 11.6415829,16.9950446 8.42959244,15.9580935 C8.27431407,15.9081149 8.30978849,15.7998979 8.48809411,15.7695188 C9.76641778,15.5515448 11.2242918,15.4094488 13.3891647,15.4094488 Z M13.3893203,12.321583 C16.8872843,12.321583 18.5981469,12.7083922 20.4098316,13.1180207 L20.811785,13.2085959 C22.6304022,13.6157658 24.6194193,14.0079759 28.3072455,14.0079759 C32.2679329,14.0079759 34.2688144,13.5555085 36.203726,13.1180207 C36.5149051,13.0476027 36.8214165,12.9785846 37.1319732,12.9123665 C35.5935038,14.2158701 33.3492802,15.3256191 30.6292639,16.1385765 C30.5972124,16.1479562 30.5611156,16.154116 30.5231518,16.156496 C29.8338901,16.1972348 29.1079093,16.2175343 28.3072455,16.2175343 C25.0683899,16.2175343 23.361419,15.8859077 21.6881322,15.5117126 L21.2864231,15.4212365 C19.3512003,14.9836087 17.3500076,14.5311413 13.3893203,14.5311413 C10.2292967,14.5311413 8.28785036,14.8234532 6.57418715,15.1831031 C6.48456757,15.2017226 6.37814433,15.1943028 6.30688432,15.1636437 C5.33911737,14.7478553 4.46470414,14.2890881 3.70169303,13.7926619 C3.61207345,13.7342835 3.67524281,13.6537858 3.82336405,13.6299865 C4.77526087,13.4772507 5.58183705,13.2958158 6.36849778,13.1180207 C8.17987122,12.7083922 9.89073383,12.321583 13.3893203,12.321583 Z M13.3893203,9.23360513 C16.8872843,9.23360513 18.5981469,9.62055434 20.4098316,10.0300429 L20.811785,10.1206161 C22.6304022,10.5277693 24.6194193,10.9198581 28.3072455,10.9198581 C32.2679329,10.9198581 34.2688144,10.4675307 36.203726,10.0300429 C37.0989882,9.82760856 37.9597095,9.63441395 39.0127396,9.48853802 C39.1736192,9.46613865 39.336677,9.52633697 39.3217404,9.60179486 C39.173308,10.3339744 38.8278992,11.0408147 38.3041848,11.710556 C38.2796016,11.7420551 38.2220335,11.7665545 38.151707,11.7770542 C37.0734715,11.9383297 36.1875447,12.1386641 35.3271345,12.3332586 C33.515761,12.7427472 31.8045873,13.1295564 28.3072455,13.1295564 C25.0683899,13.1295564 23.361419,12.7979299 21.6881322,12.4237348 L21.2864231,12.3332586 C19.3512003,11.8957708 17.3500076,11.4431635 13.3893203,11.4431635 C9.42801053,11.4431635 7.42712902,11.8957708 5.4919063,12.3332586 C4.59851115,12.535133 3.74121277,12.7276276 2.69316162,12.8732236 C2.58207068,12.8886231 2.45884377,12.8658038 2.40532096,12.8193251 C1.7412648,12.2398812 1.21630568,11.6231985 0.849736724,10.9783764 C0.814262309,10.9160782 0.911972541,10.8540599 1.05355902,10.8453802 C3.41011823,10.6989442 4.91031259,10.3597337 6.36849778,10.0300429 C8.17987122,9.62055434 9.89073383,9.23360513 13.3893203,9.23360513 Z" id="形状结合" fill="#003BDE"></path>
        </g>
    </g>
</svg>