<?xml version="1.0" encoding="UTF-8"?>
<svg width="152px" height="152px" viewBox="0 0 152 152" version="1.1" xmlns="http://www.w3.org/2000/svg" xmlns:xlink="http://www.w3.org/1999/xlink">
    <title>logo</title>
    <g id="Page-1" stroke="none" stroke-width="1" fill="none" fill-rule="evenodd">
        <path d="M8.25,3.5 C9.25,3.5 10.5,3.75 11.25,4 L115,48.0056113 C118,49.2556113 119,52.5626352 119,55.8126352 L119,144.166998 C119,148.416998 115.867122,152 111.617122,152 C110.617122,152 107.991222,150.858288 106.991222,150.608288 L5.25,107 C2.5,105.75 -7.10542736e-15,102.645188 -7.10542736e-15,99.645188 L-7.10542736e-15,11.2475048 C-7.10542736e-15,6.9975048 4,3.5 8.25,3.5 Z M32.25,0 L144.75,5 C149,5.25 152,8.49698583 152,12.7469858 L152,98.9943768 C152,105.494377 147,110.75 140.5,110.75 L132.75,110.75 C130.5,110.75 128,108.792531 128,106.542531 L128,43.1658536 L39.25,5.75 L31.75,2.75 C31,2.5 30.75,1.75 31,1 C31,0.5 31.5,0 32.25,0 Z" id="logo" fill="#2130FF" fill-rule="nonzero"></path>
    </g>
</svg>